<svg xmlns="http://www.w3.org/2000/svg" viewBox="0 0 200.75 143.37"><defs><style>.cls-1{isolation:isolate;}.cls-2{mix-blend-mode:multiply;}.cls-3{fill:#8dc63f;}.cls-4{fill:#006db7;}</style></defs><title>NI-Logo-SVG</title><g class="cls-1"><g id="Layer_2" data-name="Layer 2"><g id="Layer_1-2" data-name="Layer 1"><g class="cls-2"><path class="cls-3" d="M148.81,71.58c0,40.94-31.86,71.79-74.4,71.79S0,112.52,0,71.58C0,30.85,31.86,0,74.41,0S148.81,30.65,148.81,71.58Zm-112.31,0a37.91,37.91,0,1,0,37.91-37.7A37.86,37.86,0,0,0,36.5,71.58Z"/></g><g class="cls-2"><path class="cls-4" d="M75.25,0h55c37.82,0,70.48,33.09,70.48,71.56,0,38.68-32.66,71.77-70.48,71.77h-55ZM121,111.76c24.71,0,40.83-15.9,40.83-40.18,0-24.07-16.12-40-40.83-40h-8.6v80.15Z"/></g></g></g></g></svg>